# xmcd
#
# Track frame offsets: 
#        150
#        10575
#        25359
#        34087
#        45928
#        54775
#        63259
#        79988
#        92957
#        119847
#        130746
#        147257
#        157199
#        168241
#        172060
#        182711
#        188850
#        197519
#        210360
#        223505
#        228805
#        238837
#        240015
#        246281
#        257269
#
# Disc length: 3500 seconds
#
# Revision: 3
# Processed by: cddbd v1.5.2PL0 Copyright (c) Steve Scherf et al.
# Submitted via: ExactAudioCopyFreeDBPlugin 1.0
#
DISCID=4b0daa19
DTITLE=Legendary Stardust Cowboy - Paralyzed! His Vintage Recordings, 
DTITLE=1968-1981
DYEAR=1900
DGENRE=Country
TTITLE0=Paralyzed
TTITLE1=Who's Knocking on My Door?
TTITLE2=I Took a Trip (On a Gemini Spaceship)
TTITLE3=Down in the Wrecking Yard
TTITLE4=Kiss and Run
TTITLE5=Everything's Getting Bigger but Our Love
TTITLE6=Hey Baby of Mine
TTITLE7=You Are My Gloria
TTITLE8=Donna Plus Apollo
TTITLE9=Paralyzed
TTITLE10=I Walk a Hot Wind
TTITLE11=Radar
TTITLE12=Fly Me to the Moon
TTITLE13=The Ledge Talks
TTITLE14=I Took a Trip (On a Space Shuttle)
TTITLE15=Cast-Iron Apron
TTITLE16=Cactus
TTITLE17=Shadow of a Tiger
TTITLE18=Who's Knocking on My Door?
TTITLE19=The Ledge Hollerin'
TTITLE20=Brass Rainbow
TTITLE21=The Ledge Hollerin' More
TTITLE22=Mr. Songwriter
TTITLE23=Dynamite
TTITLE24=Crack of Dawn
EXTD=
EXTT0=
EXTT1=
EXTT2=
EXTT3=
EXTT4=
EXTT5=
EXTT6=
EXTT7=
EXTT8=
EXTT9=
EXTT10=
EXTT11=
EXTT12=
EXTT13=
EXTT14=
EXTT15=
EXTT16=
EXTT17=
EXTT18=
EXTT19=
EXTT20=
EXTT21=
EXTT22=
EXTT23=
EXTT24=
PLAYORDER=
